<?xml version="1.0" encoding="UTF-8"?><!DOCTYPE svg PUBLIC "-//W3C//DTD SVG 1.1//EN" "http://www.w3.org/Graphics/SVG/1.1/DTD/svg11.dtd"><svg xmlns="http://www.w3.org/2000/svg" xmlns:xlink="http://www.w3.org/1999/xlink"><defs>
	<filter id="Adobe_OpacityMaskFilter" filterUnits="userSpaceOnUse" x="0" y="0" width="720" height="720">
		<feFlood style="flood-color:white;flood-opacity:1" result="back"/>
		<feBlend in="SourceGraphic" in2="back" mode="normal"/>
	</filter>
</defs><symbol id="arrow-right-tip" viewBox="0 0 720 720">
<style type="text/css">
	.st0{filter:url(#Adobe_OpacityMaskFilter);}
	.st1{mask:url(#SVGID_1_);fill:#FFFFFF;}
</style>

<mask maskUnits="userSpaceOnUse" x="0" y="0" width="720" height="720" id="SVGID_1_">
	<g class="st0">
		<path d="M341.75,252.65c-10.37,20.4-25.4,36.59-45.09,48.58c-19.68,11.99-41.15,19.41-64.41,22.28l-8.59,1.07l-4.83-42.94
			l8.05-1.07c28.27-3.93,51.17-13.24,68.7-27.91c17.54-14.67,30.96-36.5,40.26-65.49l8.59-26.3h31.13l8.59,26.3
			c9.31,28.99,22.73,50.82,40.26,65.49c17.53,14.68,40.44,23.98,68.7,27.91l8.05,1.07l-4.83,42.94l-8.59-1.07
			c-23.26-2.86-44.82-10.28-64.68-22.28c-19.86-11.98-34.8-28.18-44.82-48.58"/>
	</g>
</mask>
<path class="st1" d="M489,24.01C674.56,95.25,767.23,303.44,695.99,489C624.75,674.56,416.56,767.23,231,695.99
	C45.44,624.75-47.23,416.56,24.01,231C95.25,45.44,303.44-47.23,489,24.01"/>
</symbol><symbol id="arrow-right" viewBox="0 0 127.56 90.46"><path d="M97.46,51.29C65,52,32.53,51.38,0,51.67V38.81c32.49.21,64.94-.25,97.33.27C82.91,30.86,76.9,17.52,75,1.55L88.74,0c.44,2.5.79,4.9,1.29,7.27,3,14.61,12,24.07,25.82,29.06,3.53,1.28,7.12,2.41,10.69,3.56a1.2,1.2,0,0,1,1,1.38c-.06,2.66,0,5.32,0,8,0,.78-.26,1.06-1,1.31-4.87,1.69-9.83,3.17-14.55,5.21-12.77,5.49-19.86,15.51-22.35,29-.34,1.84-.6,3.7-.92,5.7L75,88.92C77,73,82.73,59.53,97.46,51.29Z"/></symbol><symbol id="download" viewBox="0 0 112 149.45"><g id="FRzZFH"><path class="cls-1" d="M112,139.19v10.26H0V139.19l10.07.06H101.9Z"/></g><path class="cls-1" d="M49.94,97.46C49.22,65,49.85,32.53,49.56,0H62.42c-.21,32.49.24,64.94-.27,97.33C70.37,82.91,83.71,76.9,99.68,75l1.55,13.73c-2.5.44-4.9.79-7.27,1.29-14.61,3-24.07,12-29.07,25.82-1.27,3.53-2.4,7.12-3.55,10.69a1.2,1.2,0,0,1-1.38,1c-2.66-.06-5.32,0-8,0-.78,0-1.06-.26-1.31-1-1.69-4.87-3.17-9.83-5.21-14.55C40,99.28,30,92.19,16.47,89.7c-1.84-.34-3.7-.6-5.7-.92.51-4.56,1-9.09,1.54-13.8C28.21,77,41.69,82.73,49.94,97.46Z"/></symbol><symbol id="envelope" viewBox="0 0 462 329"><path d="M0,329H462V0H0ZM424.81,28.4,230.93,177.53,37.06,28.4ZM231,217,435.73,63.06V301.47H26.13V63.06Z"/></symbol><symbol id="facebook" viewBox="0 0 32 32">
<path d="M19 6h5v-6h-5c-3.86 0-7 3.14-7 7v3h-4v6h4v16h6v-16h5l1-6h-6v-3c0-0.542 0.458-1 1-1z"/>
</symbol><symbol id="google-plus" viewBox="0 0 32 32">
<path d="M10.181 14.294v3.494h5.775c-0.231 1.5-1.744 4.394-5.775 4.394-3.475 0-6.313-2.881-6.313-6.431s2.838-6.431 6.313-6.431c1.981 0 3.3 0.844 4.056 1.569l2.762-2.662c-1.775-1.656-4.075-2.662-6.819-2.662-5.631 0.006-10.181 4.556-10.181 10.188s4.55 10.181 10.181 10.181c5.875 0 9.775-4.131 9.775-9.95 0-0.669-0.075-1.181-0.163-1.688h-9.613z"/>
<path d="M32 14h-3v-3h-3v3h-3v3h3v3h3v-3h3z"/>
</symbol><symbol id="grid" viewBox="0 0 35.63 21.69">
  <path d="M0,12.53H9.22v9.16H0Zm13.22,0h9.19v9.16H13.22Zm13.22,0h9.18v9.16H26.44ZM0,0H9.22V9.19H0ZM13.22,0h9.19V9.19H13.22ZM26.44,0h9.18V9.19H26.44Z"/>
</symbol><symbol id="instagram" viewBox="0 0 32 32">
<path d="M16 2.881c4.275 0 4.781 0.019 6.462 0.094 1.563 0.069 2.406 0.331 2.969 0.55 0.744 0.288 1.281 0.638 1.837 1.194 0.563 0.563 0.906 1.094 1.2 1.838 0.219 0.563 0.481 1.412 0.55 2.969 0.075 1.688 0.094 2.194 0.094 6.463s-0.019 4.781-0.094 6.463c-0.069 1.563-0.331 2.406-0.55 2.969-0.288 0.744-0.637 1.281-1.194 1.837-0.563 0.563-1.094 0.906-1.837 1.2-0.563 0.219-1.413 0.481-2.969 0.55-1.688 0.075-2.194 0.094-6.463 0.094s-4.781-0.019-6.463-0.094c-1.563-0.069-2.406-0.331-2.969-0.55-0.744-0.288-1.281-0.637-1.838-1.194-0.563-0.563-0.906-1.094-1.2-1.837-0.219-0.563-0.481-1.413-0.55-2.969-0.075-1.688-0.094-2.194-0.094-6.463s0.019-4.781 0.094-6.463c0.069-1.563 0.331-2.406 0.55-2.969 0.288-0.744 0.638-1.281 1.194-1.838 0.563-0.563 1.094-0.906 1.838-1.2 0.563-0.219 1.412-0.481 2.969-0.55 1.681-0.075 2.188-0.094 6.463-0.094zM16 0c-4.344 0-4.887 0.019-6.594 0.094-1.7 0.075-2.869 0.35-3.881 0.744-1.056 0.412-1.95 0.956-2.837 1.85-0.894 0.888-1.438 1.781-1.85 2.831-0.394 1.019-0.669 2.181-0.744 3.881-0.075 1.713-0.094 2.256-0.094 6.6s0.019 4.887 0.094 6.594c0.075 1.7 0.35 2.869 0.744 3.881 0.413 1.056 0.956 1.95 1.85 2.837 0.887 0.887 1.781 1.438 2.831 1.844 1.019 0.394 2.181 0.669 3.881 0.744 1.706 0.075 2.25 0.094 6.594 0.094s4.888-0.019 6.594-0.094c1.7-0.075 2.869-0.35 3.881-0.744 1.050-0.406 1.944-0.956 2.831-1.844s1.438-1.781 1.844-2.831c0.394-1.019 0.669-2.181 0.744-3.881 0.075-1.706 0.094-2.25 0.094-6.594s-0.019-4.887-0.094-6.594c-0.075-1.7-0.35-2.869-0.744-3.881-0.394-1.063-0.938-1.956-1.831-2.844-0.887-0.887-1.781-1.438-2.831-1.844-1.019-0.394-2.181-0.669-3.881-0.744-1.712-0.081-2.256-0.1-6.6-0.1v0z"/>
<path d="M16 7.781c-4.537 0-8.219 3.681-8.219 8.219s3.681 8.219 8.219 8.219 8.219-3.681 8.219-8.219c0-4.537-3.681-8.219-8.219-8.219zM16 21.331c-2.944 0-5.331-2.387-5.331-5.331s2.387-5.331 5.331-5.331c2.944 0 5.331 2.387 5.331 5.331s-2.387 5.331-5.331 5.331z"/>
<path d="M26.462 7.456c0 1.060-0.859 1.919-1.919 1.919s-1.919-0.859-1.919-1.919c0-1.060 0.859-1.919 1.919-1.919s1.919 0.859 1.919 1.919z"/>
</symbol><symbol id="linkedin" viewBox="0 0 32 32">
<path d="M12 12h5.535v2.837h0.079c0.77-1.381 2.655-2.837 5.464-2.837 5.842 0 6.922 3.637 6.922 8.367v9.633h-5.769v-8.54c0-2.037-0.042-4.657-3.001-4.657-3.005 0-3.463 2.218-3.463 4.509v8.688h-5.767v-18z"/>
<path d="M2 12h6v18h-6v-18z"/>
<path d="M8 7c0 1.657-1.343 3-3 3s-3-1.343-3-3c0-1.657 1.343-3 3-3s3 1.343 3 3z"/>
</symbol><symbol id="play" viewBox="0 0 21.81 23.62"><path d="m0 0 21.82 11.81-21.82 11.82"/></symbol><symbol id="twitter" viewBox="0 0 32 32">
<path d="M32 7.075c-1.175 0.525-2.444 0.875-3.769 1.031 1.356-0.813 2.394-2.1 2.887-3.631-1.269 0.75-2.675 1.3-4.169 1.594-1.2-1.275-2.906-2.069-4.794-2.069-3.625 0-6.563 2.938-6.563 6.563 0 0.512 0.056 1.012 0.169 1.494-5.456-0.275-10.294-2.888-13.531-6.862-0.563 0.969-0.887 2.1-0.887 3.3 0 2.275 1.156 4.287 2.919 5.463-1.075-0.031-2.087-0.331-2.975-0.819 0 0.025 0 0.056 0 0.081 0 3.181 2.263 5.838 5.269 6.437-0.55 0.15-1.131 0.231-1.731 0.231-0.425 0-0.831-0.044-1.237-0.119 0.838 2.606 3.263 4.506 6.131 4.563-2.25 1.762-5.075 2.813-8.156 2.813-0.531 0-1.050-0.031-1.569-0.094 2.913 1.869 6.362 2.95 10.069 2.95 12.075 0 18.681-10.006 18.681-18.681 0-0.287-0.006-0.569-0.019-0.85 1.281-0.919 2.394-2.075 3.275-3.394z"/>
</symbol><symbol id="vimeo" viewBox="0 0 32 32">
<path d="M31.988 8.563c-0.144 3.113-2.319 7.381-6.525 12.794-4.35 5.65-8.031 8.481-11.044 8.481-1.863 0-3.444-1.719-4.731-5.163-0.863-3.156-1.719-6.313-2.581-9.469-0.956-3.444-1.981-5.162-3.081-5.162-0.237 0-1.075 0.506-2.513 1.506l-1.506-1.938c1.581-1.387 3.138-2.775 4.669-4.162 2.106-1.819 3.688-2.775 4.744-2.875 2.487-0.237 4.025 1.463 4.6 5.106 0.619 3.931 1.050 6.375 1.294 7.331 0.719 3.263 1.506 4.894 2.369 4.894 0.669 0 1.675-1.056 3.019-3.175 1.337-2.113 2.056-3.725 2.156-4.831 0.194-1.825-0.525-2.744-2.156-2.744-0.769 0-1.556 0.175-2.369 0.525 1.575-5.15 4.575-7.65 9.012-7.506 3.281 0.087 4.831 2.219 4.644 6.388z"/>
</symbol><symbol id="youtube" viewBox="0 0 32 32">
<path d="M31.681 9.6c0 0-0.313-2.206-1.275-3.175-1.219-1.275-2.581-1.281-3.206-1.356-4.475-0.325-11.194-0.325-11.194-0.325h-0.012c0 0-6.719 0-11.194 0.325-0.625 0.075-1.987 0.081-3.206 1.356-0.963 0.969-1.269 3.175-1.269 3.175s-0.319 2.588-0.319 5.181v2.425c0 2.587 0.319 5.181 0.319 5.181s0.313 2.206 1.269 3.175c1.219 1.275 2.819 1.231 3.531 1.369 2.563 0.244 10.881 0.319 10.881 0.319s6.725-0.012 11.2-0.331c0.625-0.075 1.988-0.081 3.206-1.356 0.962-0.969 1.275-3.175 1.275-3.175s0.319-2.587 0.319-5.181v-2.425c-0.006-2.588-0.325-5.181-0.325-5.181zM12.694 20.15v-8.994l8.644 4.513-8.644 4.481z"/>
</symbol></svg>